<svg preserveAspectRatio="none" width="100%" height="100%" overflow="visible" style="display: block;" viewBox="0 0 28 28" fill="none" xmlns="http://www.w3.org/2000/svg">
<g id="notifications-outline">
<path id="Vector" d="M17.5 21V21.875C17.5 22.8033 17.1312 23.6935 16.4749 24.3499C15.8185 25.0063 14.9283 25.375 14 25.375C13.0717 25.375 12.1815 25.0063 11.5251 24.3499C10.8687 23.6935 10.5 22.8033 10.5 21.875V21M23.3887 19.2188C21.9844 17.5 20.9929 16.625 20.9929 11.8863C20.9929 7.54688 18.777 6.00086 16.9531 5.25C16.7109 5.15047 16.4828 4.92187 16.409 4.67305C16.0891 3.58422 15.1922 2.625 14 2.625C12.8078 2.625 11.9104 3.58477 11.5937 4.67414C11.5199 4.9257 11.2919 5.15047 11.0496 5.25C9.22359 6.00195 7.00984 7.5425 7.00984 11.8863C7.00711 16.625 6.01562 17.5 4.61125 19.2188C4.02937 19.9309 4.53906 21 5.5568 21H22.4487C23.4609 21 23.9673 19.9276 23.3887 19.2188Z" stroke="var(--stroke-0, #6A53E7)" stroke-width="1.75" stroke-linecap="round" stroke-linejoin="round"/>
</g>
</svg>
