<svg preserveAspectRatio="none" width="100%" height="100%" overflow="visible" style="display: block;" viewBox="0 0 28 28" fill="none" xmlns="http://www.w3.org/2000/svg">
<g id="chatbubble-ellipses-outline">
<path id="Vector" d="M4.78406 20.7812C4.84968 20.5417 4.70585 20.2087 4.56859 19.9686C4.52603 19.8969 4.47967 19.8275 4.42968 19.7608C3.2524 17.9754 2.62492 15.8837 2.62499 13.7451C2.60531 7.60647 7.69562 2.62498 13.9901 2.62498C19.4797 2.62498 24.0625 6.42795 25.1327 11.4762C25.2933 12.2246 25.3745 12.9879 25.375 13.7533C25.375 19.9008 20.481 24.9605 14.1865 24.9605C13.1851 24.9605 11.8349 24.7089 11.0983 24.5027C10.3616 24.2965 9.62609 24.0231 9.43632 23.9498C9.24205 23.8752 9.03575 23.8369 8.82765 23.8366C8.60072 23.8358 8.37599 23.881 8.16702 23.9695L4.45702 25.3083C4.37595 25.3433 4.29002 25.3658 4.20218 25.375C4.1327 25.3748 4.06395 25.3608 3.99991 25.3338C3.93587 25.3069 3.87781 25.2675 3.82909 25.218C3.78037 25.1684 3.74195 25.1097 3.71607 25.0453C3.69018 24.9808 3.67733 24.9118 3.67828 24.8423C3.68284 24.7814 3.69384 24.7211 3.71109 24.6624L4.78406 20.7812Z" stroke="var(--stroke-0, #6A53E7)" stroke-width="1.75" stroke-miterlimit="10" stroke-linecap="round"/>
<path id="Vector_2" d="M8.75 15.75C9.7165 15.75 10.5 14.9665 10.5 14C10.5 13.0335 9.7165 12.25 8.75 12.25C7.7835 12.25 7 13.0335 7 14C7 14.9665 7.7835 15.75 8.75 15.75Z" fill="var(--fill-0, #6A53E7)"/>
<path id="Vector_3" d="M14 15.75C14.9665 15.75 15.75 14.9665 15.75 14C15.75 13.0335 14.9665 12.25 14 12.25C13.0335 12.25 12.25 13.0335 12.25 14C12.25 14.9665 13.0335 15.75 14 15.75Z" fill="var(--fill-0, #6A53E7)"/>
<path id="Vector_4" d="M19.25 15.75C20.2165 15.75 21 14.9665 21 14C21 13.0335 20.2165 12.25 19.25 12.25C18.2835 12.25 17.5 13.0335 17.5 14C17.5 14.9665 18.2835 15.75 19.25 15.75Z" fill="var(--fill-0, #6A53E7)"/>
</g>
</svg>
