<svg preserveAspectRatio="none" width="100%" height="100%" overflow="visible" style="display: block;" viewBox="0 0 28 28" fill="none" xmlns="http://www.w3.org/2000/svg">
<g id="settings-outline">
<path id="Vector" d="M14.344 10.517C13.6259 10.446 12.9034 10.5988 12.2754 10.9544C11.6475 11.3099 11.1448 11.8509 10.8362 12.5031C10.5276 13.1554 10.4281 13.8872 10.5515 14.5981C10.6748 15.3091 11.0148 15.9646 11.5251 16.4749C12.0354 16.9851 12.6908 17.3252 13.4018 17.4485C14.1128 17.5718 14.8446 17.4724 15.4968 17.1638C16.1491 16.8552 16.6901 16.3525 17.0456 15.7245C17.4012 15.0966 17.554 14.3741 17.483 13.656C17.4022 12.851 17.0455 12.0987 16.4734 11.5266C15.9013 10.9545 15.149 10.5978 14.344 10.517ZM22.7713 14C22.7691 14.3804 22.7411 14.7603 22.6876 15.137L25.1601 17.0762C25.2677 17.1654 25.3403 17.2899 25.3648 17.4276C25.3893 17.5653 25.3643 17.7072 25.294 17.8281L22.9551 21.875C22.884 21.9948 22.773 22.0856 22.6415 22.1315C22.5101 22.1775 22.3666 22.1755 22.2365 22.126L19.781 21.1373C19.6456 21.0834 19.4989 21.0639 19.3541 21.0806C19.2093 21.0973 19.071 21.1496 18.9514 21.233C18.5766 21.491 18.1829 21.7203 17.7734 21.9187C17.6447 21.9813 17.5334 22.0746 17.4492 22.1904C17.3651 22.3062 17.3108 22.4409 17.2911 22.5827L16.923 25.2016C16.8989 25.34 16.8274 25.4656 16.7209 25.5571C16.6143 25.6485 16.4793 25.7002 16.339 25.7031H11.661C11.5229 25.7007 11.3898 25.6514 11.2835 25.5632C11.1773 25.475 11.1042 25.3533 11.0764 25.218L10.7089 22.6029C10.6882 22.4596 10.6325 22.3236 10.5467 22.207C10.4608 22.0904 10.3474 21.9968 10.2167 21.9346C9.80775 21.7372 9.4153 21.5073 9.04311 21.2472C8.92394 21.1643 8.78601 21.1123 8.64176 21.096C8.49751 21.0797 8.35146 21.0995 8.21678 21.1537L5.76186 22.1419C5.63176 22.1914 5.48835 22.1935 5.3569 22.1476C5.22544 22.1018 5.11438 22.0111 5.04326 21.8914L2.70428 17.8445C2.63396 17.7236 2.60883 17.5817 2.63336 17.444C2.6579 17.3063 2.73051 17.1818 2.83826 17.0926L4.92787 15.452C5.04235 15.3611 5.13233 15.243 5.18963 15.1086C5.24693 14.9741 5.26974 14.8275 5.256 14.682C5.23631 14.4539 5.22428 14.2264 5.22428 13.9984C5.22428 13.7703 5.23576 13.5461 5.256 13.323C5.26824 13.1783 5.24431 13.0329 5.18636 12.8998C5.12841 12.7668 5.03826 12.6502 4.92404 12.5606L2.83553 10.92C2.72952 10.8304 2.65844 10.7063 2.63474 10.5695C2.61105 10.4327 2.63624 10.2919 2.70592 10.1719L5.0449 6.125C5.11593 6.00523 5.22696 5.91438 5.35843 5.86845C5.48989 5.82253 5.63334 5.82449 5.7635 5.87398L8.21896 6.86273C8.35437 6.91665 8.50104 6.93613 8.64583 6.91942C8.79062 6.90272 8.929 6.85036 9.04857 6.76703C9.42332 6.50897 9.81711 6.27972 10.2265 6.08125C10.3553 6.01869 10.4666 5.92539 10.5507 5.80961C10.6348 5.69382 10.6892 5.5591 10.7089 5.41734L11.0769 2.79836C11.1011 2.66004 11.1726 2.53442 11.2791 2.44295C11.3856 2.35148 11.5206 2.29985 11.661 2.29688H16.339C16.477 2.29926 16.6102 2.34861 16.7164 2.43678C16.8227 2.52496 16.8958 2.6467 16.9236 2.78195L17.2911 5.39711C17.3117 5.54043 17.3674 5.67642 17.4533 5.79301C17.5392 5.9096 17.6525 6.00317 17.7833 6.06539C18.1922 6.26279 18.5847 6.49267 18.9569 6.75281C19.076 6.83573 19.2139 6.88769 19.3582 6.90401C19.5025 6.92034 19.6485 6.90051 19.7832 6.84633L22.2381 5.85813C22.3682 5.80858 22.5116 5.80654 22.6431 5.85236C22.7745 5.89818 22.8856 5.98892 22.9567 6.10859L25.2957 10.1555C25.366 10.2764 25.3911 10.4183 25.3666 10.556C25.3421 10.6937 25.2695 10.8182 25.1617 10.9074L23.0721 12.548C22.9571 12.6386 22.8666 12.7565 22.8088 12.891C22.751 13.0255 22.7278 13.1723 22.7412 13.318C22.7593 13.5445 22.7713 13.772 22.7713 14Z" stroke="var(--stroke-0, #6A53E7)" stroke-width="1.75" stroke-linecap="round" stroke-linejoin="round"/>
</g>
</svg>
