<svg viewBox="0 0 12 12" fill="none" xmlns="http://www.w3.org/2000/svg">
  <path d="M5.625 0.700195C7.30486 0.700195 8.6748 2.07014 8.6748 3.75V9.84863L10.5742 7.94922C10.6539 7.86954 10.7623 7.8252 10.875 7.8252C10.9877 7.8252 11.0961 7.86954 11.1758 7.94922C11.2555 8.02892 11.2998 8.13731 11.2998 8.25C11.2998 8.36269 11.2555 8.47108 11.1758 8.55078L8.55078 11.1758C8.47108 11.2555 8.36269 11.2998 8.25 11.2998C8.13731 11.2998 8.02892 11.2555 7.94922 11.1758L5.32422 8.55078C5.24454 8.47108 5.2002 8.36269 5.2002 8.25C5.2002 8.13731 5.24454 8.02892 5.32422 7.94922C5.36502 7.90836 5.41415 7.87688 5.46777 7.85547C5.52156 7.83406 5.57982 7.82355 5.6377 7.8252C5.74598 7.82849 5.84922 7.87256 5.92578 7.94922L7.8252 9.84863V3.75C7.8252 2.53036 6.84464 1.5498 5.625 1.5498H1.125C1.01228 1.5498 0.903922 1.50548 0.824219 1.42578C0.744516 1.34608 0.700195 1.23772 0.700195 1.125L0.708008 1.04199C0.724296 0.960176 0.764362 0.884076 0.824219 0.824219C0.903922 0.744516 1.01228 0.700195 1.125 0.700195H5.625Z" fill="white"/>
</svg>
